/* XPM */
static char *result[] = {
/* columns rows colors chars-per-pixel */
"16 16 125 2 ",
"   c #8B7BAC",
".  c #947CAA",
"X  c #937BAC",
"o  c #927EAD",
"O  c #8B84B7",
"+  c #8E88B7",
"@  c #8F87B8",
"#  c #8A88B9",
"$  c #8A88BA",
"%  c #8A89BB",
"&  c #8B89BB",
"*  c #8A8ABB",
"=  c #8B8BBB",
"-  c #8D88B9",
";  c #8C8BBB",
":  c #8B8BBC",
">  c #8A8BBD",
",  c #8D8ABC",
"<  c #898CBD",
"1  c #8A8EBF",
"2  c #9386B3",
"3  c #9785B2",
"4  c #948EBC",
"5  c #998CB9",
"6  c #9A93BD",
"7  c #8A8FC0",
"8  c #8B90C1",
"9  c #8A91C2",
"0  c #8992C4",
"q  c #8994C4",
"w  c #8994C5",
"e  c #8A94C4",
"r  c #8B94C6",
"t  c #899ACB",
"y  c #899DCC",
"u  c #889ECE",
"i  c #899FCE",
"p  c #9B99C4",
"a  c #9B9AC6",
"s  c #909FCC",
"d  c #88A3D3",
"f  c #89A6D5",
"g  c #87AFDE",
"h  c #88ACDE",
"j  c #9BA6D1",
"k  c #95ADD8",
"l  c #87B0DF",
"z  c #8FB1DD",
"x  c #9CB1DA",
"c  c #A3A6CD",
"v  c #B2AACD",
"b  c #A8B1D5",
"n  c #A8B4D7",
"m  c #ACB9DB",
"M  c #B7B3D3",
"N  c #B2B5D7",
"B  c #BFBFDB",
"V  c #86B1E0",
"C  c #87B1E0",
"Z  c #87B3E1",
"A  c #87B6E3",
"S  c #87B7E6",
"D  c #88B1E1",
"F  c #89B6E3",
"G  c #87B9E6",
"H  c #87B9E8",
"J  c #86BAE8",
"K  c #86BBE9",
"L  c #86BCE9",
"P  c #86BCEA",
"I  c #87BCEA",
"U  c #87BEEA",
"Y  c #86BFED",
"T  c #BEC4DF",
"R  c #86C0EE",
"E  c #86C5F3",
"W  c #85C6F3",
"Q  c #85C8F5",
"!  c #85C9F7",
"~  c #B3C9E9",
"^  c #B3CBE9",
"/  c #B6D2EF",
"(  c #B7D6F3",
")  c #BBD8F6",
"_  c #BBDCF9",
"`  c #BBDEF9",
"'  c #C2C1DB",
"]  c #C1C1DD",
"[  c #C4C8E3",
"{  c #C4C9E4",
"}  c #C5CFE9",
"|  c #C9D0E7",
" . c #D3DFF2",
".. c #C4E2FB",
"X. c #C4E3FB",
"o. c #C6E3FB",
"O. c #C7E3FB",
"+. c #C8E5FB",
"@. c #CAE5FB",
"#. c #C8E6FB",
"$. c #CAE6FB",
"%. c #C8E4FC",
"&. c #CCE7FC",
"*. c #CDE7FC",
"=. c #CFE9FD",
"-. c #D4E2F5",
";. c #D3E4F7",
":. c #D0E9FD",
">. c #D1EAFD",
",. c #D3EBFD",
"<. c #D6EBFE",
"1. c #DBEBFC",
"2. c #DBECFC",
"3. c #D8EDFE",
"4. c #DAEDFE",
"5. c #DAEEFE",
"6. c #DAEEFF",
"7. c #DDF0FF",
"8. c #DEF0FF",
"9. c #E5E7F3",
"0. c #EAF5FE",
"q. c #F1F3FA",
"w. c #FAFAFB",
"e. c #FEFEFE",
"r. c None",
/* pixels */
"+.%.$.*.=.,.5 V y P ' r.r.r.r.r.",
":.&.@.O.o.X.N 2 l V F 9.r.r.r.r.",
"0.3.4.5.6.[ B 2.j u G z q.r.r.r.",
"8.8.8.8.] | 8.8.-.k   U x w.r.r.",
"T 8.1.M  .8.8.8.7.} z > Y b e.r.",
"s { v ;.3.<.>.*.#...p Z t L = r.",
"! : / ` ` ` ` ` ` ` ` @ C g S & ",
"% E - ` ` ` ` ` ` ` ` ) , d Q 1 ",
"R w I 4 ` ` ` ` ` ` ` ` ~ 8 8 r.",
"7 H 9 h a ` ` ` ` ` ` ` m . r.r.",
"r.r 0 K i n ` ` ` ` ` c X r.r.r.",
"r.r.f q Q e ^ ` ` _ 6 r.r.r.r.r.",
"r.r.r.D $ W ; ) ( 3 r.r.r.r.r.r.",
"r.r.r.# Y 9 R + o r.r.r.r.r.r.r.",
"r.r.r.r.< J A O r.r.r.r.r.r.r.r.",
"r.r.r.r.r.* r.r.r.r.r.r.r.r.r.r."
};
